<svg width="34" height="34" viewBox="0 0 34 34" fill="none" xmlns="http://www.w3.org/2000/svg">
<path d="M24.0841 26.2844L25.2175 25.6547C25.521 25.4862 25.7696 25.2337 25.9334 24.9275C26.0972 24.6213 26.1692 24.2745 26.141 23.9284C26.1128 23.5823 25.9855 23.2517 25.7742 22.9761C25.563 22.7005 25.2769 22.4916 24.95 22.3744C25.087 21.9297 25.0473 21.4492 24.8391 21.033C24.631 20.6167 24.2705 20.2967 23.8325 20.1394C23.9694 19.6946 23.9297 19.2141 23.7216 18.7979C23.5135 18.3816 23.1529 18.0616 22.7149 17.9043C22.8398 17.499 22.8183 17.0628 22.6542 16.6718C22.49 16.2808 22.1936 15.96 21.8168 15.7654C22.0169 15.1473 21.9932 14.4784 21.7499 13.8759L21.4807 13.2029C21.4261 13.0668 21.32 12.9577 21.1856 12.8991L33.6415 0.962225C33.7242 0.882933 33.7806 0.78012 33.8029 0.667721C33.8252 0.555323 33.8125 0.438774 33.7663 0.33387C33.7202 0.228966 33.643 0.140781 33.545 0.0812665C33.4471 0.0217517 33.3332 -0.00621459 33.2189 0.00115789L16.0964 1.10584C15.8906 0.735959 15.5547 0.455665 15.154 0.319275C14.7533 0.182884 14.3162 0.20011 13.9274 0.367614C13.5387 0.535119 13.226 0.840973 13.0499 1.2259C12.8738 1.61084 12.8468 2.04744 12.9743 2.45109L16.8469 14.7142L12.843 16.5827C12.6107 16.6919 12.4063 16.8528 12.2456 17.0531C12.0849 17.2533 11.972 17.4876 11.9155 17.7381L10.9695 21.9952L0 28.5768L0.574934 29.5352L11.7503 22.8299C11.8154 22.7909 11.8718 22.739 11.9161 22.6775C11.9605 22.616 11.9919 22.546 12.0083 22.472L13.0064 17.9805C13.0252 17.897 13.0629 17.8189 13.1165 17.7522C13.1701 17.6854 13.2382 17.6318 13.3156 17.5954L20.6626 14.1668L20.7123 14.291C20.7952 14.4982 20.8359 14.7199 20.832 14.9431C20.8281 15.1663 20.7796 15.3864 20.6894 15.5906C20.5993 15.7948 20.4693 15.9789 20.307 16.1322C20.1447 16.2855 19.9535 16.4048 19.7445 16.4831L17.4131 17.3575C17.2816 17.4068 17.1735 17.5038 17.1103 17.6292C17.0471 17.7545 17.0335 17.8991 17.072 18.0342C17.3584 19.0299 17.3016 20.093 16.9109 21.0526C16.5201 22.0122 15.8181 22.8126 14.9177 23.3251L14.5382 23.5419L15.0927 24.5122L15.4721 24.2954C16.4008 23.7662 17.1633 22.9882 17.6736 22.049C17.8841 22.4395 18.2321 22.7377 18.6501 22.8859C18.5132 23.3307 18.5529 23.8111 18.761 24.2274C18.9692 24.6436 19.3297 24.9636 19.7677 25.1209C19.6677 25.4472 19.6617 25.795 19.7504 26.1245C19.839 26.454 20.0188 26.7518 20.2689 26.9839L19.8159 27.2859C19.7242 27.3471 19.6163 27.3798 19.506 27.3797H15.3742C15.2695 27.3797 15.1669 27.4091 15.0781 27.4646L6.13777 33.0523L6.73009 34L15.5345 28.4972H19.506C19.837 28.4976 20.1607 28.3996 20.4359 28.2157L20.9932 27.8442L22.3384 32.1041C22.475 32.5359 22.7776 32.8958 23.1795 33.1047C23.5815 33.3135 24.0499 33.3543 24.4819 33.2178C24.9138 33.0814 25.2739 32.7791 25.483 32.3773C25.6921 31.9755 25.7331 31.5071 25.5969 31.0751L24.0841 26.2844ZM17.8683 14.2375L14.04 2.11455C14.0157 2.03765 14.0074 1.95659 14.0156 1.87637C14.0239 1.79614 14.0484 1.71845 14.0878 1.64807C14.1272 1.57769 14.1805 1.51612 14.2446 1.46713C14.3086 1.41814 14.382 1.38278 14.4603 1.36323C14.6063 1.32697 14.7606 1.34766 14.8919 1.42111C15.0232 1.49455 15.1216 1.61524 15.1672 1.75863L18.9487 13.7334L17.8683 14.2375ZM19.7905 12.6881L16.4788 2.20102L31.7625 1.21501L19.7905 12.6881ZM18.3619 19.6029C18.3853 19.1434 18.3533 18.6827 18.2666 18.2309L20.1369 17.5295C20.5752 17.3664 20.9652 17.0954 21.2707 16.7414C21.3873 16.794 21.4869 16.8779 21.5585 16.9838C21.6301 17.0897 21.6708 17.2134 21.6762 17.3412C21.6815 17.4689 21.6512 17.5956 21.5887 17.7071C21.5262 17.8186 21.4339 17.9105 21.3221 17.9726L21.2288 18.0244L21.2272 18.0253L18.4771 19.5531C18.4403 19.5731 18.4017 19.5898 18.3619 19.6029ZM19.0566 21.8439C18.9275 21.804 18.813 21.727 18.7273 21.6226C18.6416 21.5182 18.5885 21.3909 18.5745 21.2565C18.5605 21.1221 18.5863 20.9866 18.6487 20.8667C18.7111 20.7469 18.8073 20.6481 18.9254 20.5824L19.019 20.5305L19.0203 20.5298L21.7711 19.0016C21.931 18.9133 22.1194 18.892 22.295 18.9424C22.4706 18.9929 22.619 19.111 22.7076 19.2708C22.7962 19.4306 22.8177 19.619 22.7675 19.7947C22.7172 19.9704 22.5993 20.1189 22.4396 20.2077L22.3464 20.2595L22.3448 20.2604L19.5943 21.7884C19.5132 21.8337 19.4236 21.8621 19.3312 21.8716C19.2387 21.8811 19.1453 21.8717 19.0566 21.8439ZM20.1741 24.079C20.045 24.0391 19.9305 23.9621 19.8448 23.8577C19.7591 23.7532 19.706 23.6259 19.692 23.4916C19.6781 23.3572 19.7039 23.2217 19.7663 23.1018C19.8287 22.982 19.9249 22.8831 20.043 22.8175L20.1366 22.7655L20.1379 22.7649L22.8886 21.2367C23.0485 21.1482 23.2371 21.1268 23.4128 21.1773C23.5884 21.2277 23.7369 21.3458 23.8255 21.5057C23.9141 21.6656 23.9356 21.8541 23.8853 22.0298C23.835 22.2055 23.717 22.3541 23.5572 22.4428L23.4639 22.4946L23.4623 22.4954L20.7118 24.0235C20.6307 24.0688 20.5412 24.0972 20.4487 24.1067C20.3562 24.1163 20.2628 24.1068 20.1741 24.079ZM21.2917 26.3141C21.1626 26.2741 21.0481 26.1972 20.9624 26.0928C20.8767 25.9883 20.8235 25.861 20.8096 25.7266C20.7956 25.5923 20.8214 25.4567 20.8838 25.3369C20.9462 25.2171 21.0424 25.1182 21.1605 25.0526L21.2541 25.0006L21.2554 24.9999L24.0062 23.4718C24.1661 23.3834 24.3545 23.3621 24.5301 23.4126C24.7057 23.4631 24.8541 23.5812 24.9427 23.741C25.0313 23.9008 25.0528 24.0892 25.0026 24.2649C24.9523 24.4405 24.8344 24.5891 24.6747 24.6779L21.8302 26.2581C21.749 26.3037 21.6593 26.3321 21.5667 26.3418C21.4741 26.3514 21.3805 26.3419 21.2917 26.3141ZM24.4835 31.878C24.4444 31.9486 24.3911 32.0104 24.327 32.0594C24.2629 32.1084 24.1894 32.1437 24.111 32.1629C23.965 32.1992 23.8106 32.1785 23.6793 32.1051C23.548 32.0316 23.4496 31.9109 23.4041 31.7675L22.02 27.3846C22.1426 27.3473 22.2609 27.2971 22.3729 27.235L23.0871 26.8383L24.5313 31.4116C24.5559 31.4884 24.5643 31.5695 24.5561 31.6498C24.5479 31.7301 24.5232 31.8078 24.4835 31.878Z" fill="white"/>
</svg>
